<svg width="24" height="24" viewBox="0 0 24 24" fill="none" xmlns="http://www.w3.org/2000/svg">
<path d="M17.625 2H6.375C3.95875 2 2 3.95875 2 6.375V17.625C2 20.0413 3.95875 22 6.375 22H17.625C20.0413 22 22 20.0413 22 17.625V6.375C22 3.95875 20.0413 2 17.625 2Z" fill="#FB4B4E"/>
<path d="M14.9239 11.8817C15.4908 11.2116 15.9443 10.45 16.3378 9.63522C16.4045 9.52099 16.4578 9.39154 16.4978 9.23923C16.8046 8.48533 17.0647 7.70097 17.2314 6.88615C17.2538 6.66234 17.2998 6.4439 17.3455 6.22632C17.3542 6.18479 17.3629 6.14328 17.3715 6.10179C17.3872 6.0213 17.3936 5.93849 17.4001 5.85562C17.4102 5.7268 17.4202 5.59782 17.4649 5.47734C17.5166 5.17678 17.5285 4.87244 17.5404 4.56965C17.5454 4.44286 17.5504 4.31624 17.5582 4.19038C17.5649 4.09138 17.5649 4 17.4382 4H16.6046C16.5179 4 16.4845 4.03808 16.4845 4.13707C16.4845 4.77675 16.4312 5.41642 16.3578 6.04848C16.2578 6.87853 16.1177 7.69335 15.891 8.49295C15.7509 8.98032 15.6042 9.46769 15.4241 9.93983L15.4041 10.0084C15.1574 10.648 14.8706 11.2573 14.5305 11.836C14.4771 11.9274 14.4438 12.0035 14.5105 12.1101C14.8306 12.6204 15.084 13.1763 15.3241 13.7398C15.5108 14.1815 15.6775 14.6384 15.7976 15.1105C15.9576 15.6436 16.0844 16.1766 16.1844 16.7249C16.3711 17.7454 16.4912 18.7734 16.4912 19.8167C16.4912 19.9462 16.5312 19.9842 16.6379 19.9842L16.6444 19.984C16.8889 19.9765 17.1269 19.9691 17.3715 19.9842C17.5316 19.9918 17.5716 19.9309 17.5649 19.7558C17.5382 19.2303 17.5115 18.7049 17.4382 18.1871C17.2715 16.9991 16.9647 15.8568 16.5112 14.7678C16.1044 13.8007 15.5842 12.9097 14.9373 12.1254C14.8706 12.0416 14.8439 11.9731 14.9239 11.8817Z" fill="#FFE15A"/>
<path d="M18.4721 16.2605C18.1387 15.1639 17.6652 14.1587 16.9716 13.2982C16.9373 13.2346 16.8921 13.1867 16.8464 13.1384C16.821 13.1115 16.7954 13.0845 16.7715 13.0545C16.7383 13.0191 16.7066 12.9811 16.6746 12.9429C16.6103 12.8661 16.5449 12.788 16.4648 12.727C16.2447 12.5138 16.0246 12.3158 15.7845 12.1407C15.6866 12.0674 15.6382 12.0312 15.6386 11.9956C15.639 11.9608 15.6857 11.9266 15.7778 11.8589C16.7248 11.1507 17.4318 10.2064 17.952 9.07936C18.2987 8.32546 18.5522 7.52587 18.7189 6.69581C18.8923 5.86576 18.9723 5.02809 18.9923 4.17519C18.9923 4.05335 18.9657 4.00766 18.8523 4.00766C18.5989 4.01528 18.3388 4.01528 18.0853 4.00766C17.9853 4.00766 17.9319 4.03812 17.9386 4.16758C17.9503 4.46123 17.9261 4.74904 17.902 5.03612L17.8919 5.15755C17.8319 5.94191 17.6919 6.71104 17.5051 7.46494C17.3451 8.097 17.1317 8.6986 16.8982 9.29258C16.7382 9.68857 16.5514 10.0693 16.3314 10.4272L16.3161 10.4549C16.2083 10.6506 16.1047 10.8387 15.9646 11.006C15.7978 11.2573 15.6178 11.4934 15.431 11.7294C15.4028 11.7643 15.3778 11.7942 15.3559 11.8204C15.2808 11.91 15.2427 11.9555 15.2426 12.0009C15.2425 12.0476 15.2821 12.0943 15.3624 12.1889C15.3809 12.2107 15.4016 12.235 15.4244 12.2625C16.5715 13.6789 17.2784 15.3543 17.6585 17.22C17.8386 18.0729 17.9319 18.941 17.9386 19.8167C17.9386 19.9614 17.9853 19.9995 18.1053 19.9919C18.3388 19.9843 18.5722 19.9767 18.8056 19.9919C18.9723 19.9995 19.0057 19.931 18.999 19.7634C18.9857 19.0019 18.9056 18.2404 18.7723 17.4865C18.7256 17.1362 18.6322 16.7935 18.5388 16.4585C18.5122 16.3899 18.4922 16.329 18.4721 16.2605Z" fill="#FFE15A"/>
<path d="M8.27514 12.1072C7.99503 12.3051 7.74161 12.526 7.50152 12.7697C7.30145 12.9677 7.11472 13.1809 6.94132 13.417C6.90871 13.4639 6.8761 13.5102 6.84365 13.5564C6.6971 13.7649 6.55326 13.9695 6.4278 14.1937C5.8876 15.138 5.51413 16.166 5.28738 17.2702C5.11399 18.1079 5.02729 18.9532 5.01395 19.7909C5.01395 19.9355 5.0473 19.9889 5.17401 19.9812C5.42077 19.9736 5.67419 19.9736 5.92095 19.9812C6.02765 19.9889 6.06767 19.9508 6.06767 19.8213C6.07434 19.1588 6.13436 18.5039 6.2344 17.8566C6.37445 16.9199 6.6012 16.0213 6.94132 15.1532C6.96308 15.1242 6.97104 15.0885 6.97913 15.0521C6.98592 15.0216 6.9928 14.9906 7.00801 14.9628L7.03191 14.9056C7.16412 14.5889 7.29835 14.2673 7.46818 13.9729C7.5282 13.8739 7.58822 13.7749 7.6349 13.6606C7.64157 13.6416 7.64824 13.6245 7.65491 13.6073C7.66158 13.5902 7.66825 13.5731 7.67492 13.554C7.70838 13.501 7.74132 13.4473 7.77432 13.3936C7.85971 13.2545 7.94551 13.1147 8.04172 12.9829C8.24179 12.6935 8.4552 12.3965 8.68862 12.13C8.77532 12.031 8.77532 11.9625 8.68862 11.8635C8.4552 11.5969 8.24179 11.3076 8.03505 11.0106C7.86165 10.7669 7.70826 10.5156 7.56821 10.2491C7.12138 9.41139 6.76792 8.53564 6.52784 7.59136C6.49582 7.45429 6.46595 7.31722 6.43607 7.18015C6.39125 6.97454 6.34644 6.76892 6.29442 6.56331C6.1477 5.79418 6.06767 5.00982 6.061 4.22546C6.061 4.05031 6.01432 4.00462 5.8676 4.01223C5.64085 4.02746 5.4141 4.02746 5.18735 4.01223C5.04063 4.00462 4.99395 4.05793 5.00061 4.22546C5.01395 4.91082 5.07397 5.59619 5.18735 6.26632C5.32073 7.0583 5.5208 7.83505 5.82758 8.57372C5.85235 8.63028 5.87776 8.68539 5.90301 8.74016C5.95936 8.86237 6.01495 8.98294 6.061 9.1144C6.22106 9.48754 6.4278 9.83022 6.63454 10.1729C6.92798 10.6298 7.2681 11.0258 7.64157 11.3913C7.69026 11.4313 7.7386 11.4712 7.78683 11.5111C7.94998 11.646 8.11196 11.7799 8.28181 11.9092C8.39518 11.9929 8.3685 12.0386 8.27514 12.1072Z" fill="#FFE15A"/>
<path d="M12.1828 11.9807V4.27415C12.1828 4.13898 12.1828 4.07437 12.2151 4.0435C12.2446 4.01523 12.3012 4.01523 12.4096 4.01523C12.4827 4.01523 12.5565 4.01608 12.6306 4.01692C12.7796 4.01861 12.9295 4.02032 13.0765 4.01523C13.1965 4.00762 13.2432 4.05331 13.2432 4.198C13.2499 5.31743 13.2099 6.44447 13.1365 7.5639C13.0765 8.43965 12.9898 9.31539 12.8764 10.1911C12.823 10.5737 12.759 10.9521 12.6947 11.3325C12.6706 11.4746 12.6466 11.6169 12.623 11.7599C12.5963 11.9045 12.5763 12.0416 12.6096 12.1939C12.7964 13.1382 12.9231 14.0977 13.0231 15.0572C13.1832 16.6107 13.2565 18.1642 13.2499 19.7253C13.2499 19.8697 13.2499 19.9381 13.2157 19.9704C13.1851 19.9995 13.1269 19.9995 13.0164 19.9995H12.4496C12.3273 19.9995 12.2641 19.9995 12.2313 19.9678C12.1962 19.9339 12.1962 19.8636 12.1962 19.7177V14.2805C12.1828 13.5037 12.1828 12.7422 12.1828 11.9807Z" fill="#FFE15A"/>
<path d="M11.3869 12.3065C11.29 12.8371 11.1944 13.3613 11.1362 13.8997C11.1161 14.102 11.0921 14.3035 11.0682 14.5047C11.021 14.9017 10.9739 15.2976 10.9562 15.6969L10.9536 15.7617C10.9487 15.8923 10.9438 16.022 10.9095 16.1462C10.9062 16.1766 10.9045 16.209 10.9028 16.2414C10.9012 16.2737 10.8995 16.3061 10.8962 16.3366C10.8028 17.4865 10.7761 18.6363 10.7761 19.7938C10.7761 19.9461 10.8161 19.9995 10.9495 19.9918C11.0915 19.9868 11.2305 19.9885 11.3705 19.9901C11.4409 19.991 11.5117 19.9918 11.5831 19.9918C11.8365 19.9918 11.8365 19.9918 11.8365 19.7025V4.31222C11.8365 4.30005 11.8358 4.2871 11.8351 4.27361C11.8336 4.24493 11.832 4.21385 11.8365 4.18276C11.8432 4.06092 11.7965 4.01523 11.6898 4.01523C11.5428 4.02031 11.3929 4.01861 11.2439 4.01691C11.1698 4.01607 11.096 4.01523 11.0229 4.01523C10.7761 4.01523 10.7761 4.01523 10.7761 4.28937C10.7694 5.85048 10.8428 7.40398 11.0029 8.95747C11.1029 9.91698 11.2296 10.8765 11.4163 11.8208C11.443 11.9731 11.423 12.1101 11.3963 12.2548L11.3869 12.3065Z" fill="#FFE15A"/>
<path d="M8.56857 9.94735C8.80199 10.6099 9.1021 11.2419 9.45556 11.8283C9.52892 11.9501 9.52892 12.0415 9.45556 12.1634C8.81532 13.2447 8.3685 14.4251 8.04838 15.6663C8.04504 15.6816 8.04338 15.6968 8.04171 15.712C8.04004 15.7273 8.03838 15.7425 8.03504 15.7577C7.99165 15.8974 7.96225 16.0423 7.93306 16.1863C7.9129 16.2858 7.89283 16.3847 7.86831 16.4812C7.64823 17.5549 7.52152 18.6515 7.51485 19.7557C7.51485 19.9308 7.47484 19.9918 7.31478 19.9765C7.08136 19.9613 6.84794 19.9613 6.61452 19.9765C6.45447 19.9841 6.43446 19.9004 6.43446 19.7481C6.46114 18.7048 6.60119 17.6844 6.85461 16.6792C7.22808 15.1942 7.80829 13.8311 8.6686 12.6355C8.79532 12.4604 8.9287 12.2852 9.06208 12.1253C9.13544 12.0339 9.14878 11.9654 9.06875 11.874C7.86831 10.4043 7.12804 8.65277 6.72123 6.7109C6.54783 5.89608 6.46114 5.06603 6.44113 4.22836C6.43446 4.06083 6.48114 4.00752 6.62786 4.01514C6.87243 4.03023 7.11046 4.02288 7.35491 4.01534L7.36146 4.01514C7.4615 4.01514 7.51485 4.03798 7.51485 4.17505C7.51485 5.21072 7.62823 6.23876 7.81496 7.25158C7.90833 7.75418 8.01503 8.24917 8.16842 8.73654C8.20844 8.78223 8.21511 8.84315 8.22178 8.90407C8.22844 8.94215 8.23845 8.98022 8.24845 9.0183C8.25846 9.05637 8.26846 9.09445 8.27513 9.13253C8.27887 9.14108 8.28052 9.14963 8.28242 9.15953C8.2839 9.16726 8.28554 9.17582 8.28847 9.18583C8.32181 9.32291 8.36183 9.45236 8.42852 9.57421C8.44183 9.63502 8.46843 9.69393 8.49589 9.75473C8.52345 9.81576 8.55186 9.87869 8.56857 9.94735Z" fill="#FFE15A"/>
<path d="M13.4703 12.3462C13.7971 13.26 14.0572 14.2043 14.2439 15.1714C14.4373 16.1919 14.564 17.2199 14.6307 18.2556C14.6641 18.7658 14.6907 19.2836 14.6907 19.7938C14.6907 19.9385 14.6574 19.9918 14.524 19.9918C14.2773 19.9842 14.0372 19.9842 13.7904 19.9918C13.657 19.9995 13.617 19.9385 13.617 19.7938C13.6224 19.3281 13.6105 18.8624 13.5987 18.4007L13.5987 18.3996C13.5958 18.2879 13.5929 18.1764 13.5903 18.0652C13.5437 16.4279 13.3969 14.8059 13.1702 13.1915C13.1302 12.9097 13.0768 12.628 13.0168 12.3538C12.9635 12.1178 12.9701 11.8817 13.0235 11.6456C13.1769 10.8765 13.2769 10.0997 13.3569 9.323C13.5437 7.62482 13.6237 5.9114 13.617 4.19799C13.617 4.06853 13.6504 4.01523 13.7704 4.01523C14.0238 4.02284 14.2839 4.02284 14.5374 4.01523C14.6574 4.01523 14.6907 4.06092 14.6907 4.19038C14.6907 5.05851 14.6307 5.92663 14.544 6.78715C14.4307 7.94465 14.2306 9.07931 13.9371 10.1911C13.8175 10.6351 13.671 11.073 13.5266 11.5047L13.477 11.6532C13.3436 11.8817 13.3369 12.1178 13.4703 12.3462Z" fill="#FFE15A"/>
<path d="M10.4357 12.6661C10.1889 13.3514 10.0089 14.0672 9.84214 14.7831C9.81546 14.8059 9.80879 14.844 9.80879 14.8897C9.78689 15.0197 9.76139 15.1498 9.73584 15.2801C9.68359 15.5466 9.63111 15.8142 9.60872 16.0853C9.59297 16.2201 9.57515 16.3562 9.5573 16.4925C9.5298 16.7025 9.50223 16.9131 9.48201 17.1209C9.38864 18.0195 9.32862 18.9257 9.32862 19.8319C9.32862 19.9614 9.36863 19.9995 9.47534 19.9995C9.70876 19.9918 9.94884 19.9842 10.1889 19.9995C10.369 20.0071 10.4023 19.9385 10.4023 19.7482C10.389 18.9181 10.4157 18.0881 10.4557 17.258C10.5024 16.3746 10.5691 15.4913 10.6691 14.6079C10.6809 14.5092 10.6924 14.4105 10.7038 14.3119C10.7566 13.8551 10.8093 13.4001 10.9025 12.9554C10.9429 12.8069 10.9652 12.6549 10.9876 12.5017C10.9985 12.4272 11.0095 12.3524 11.0226 12.2777C11.0285 12.244 11.0379 12.2102 11.0473 12.1763C11.0699 12.0953 11.0927 12.0133 11.0692 11.9274C11.0298 11.7719 11.0039 11.6142 10.978 11.4567C10.9557 11.321 10.9334 11.1855 10.9025 11.0516C10.7943 10.5095 10.7349 9.96112 10.6754 9.41215L10.6558 9.23162C10.5357 8.1655 10.4624 7.09176 10.429 6.01041C10.409 5.40881 10.3957 4.80721 10.4023 4.20561C10.4023 4.06854 10.369 4.00762 10.2423 4.01523C10.0089 4.02285 9.77545 4.03046 9.54203 4.01523C9.36196 4 9.32862 4.06854 9.32862 4.25892C9.34862 5.7058 9.46867 7.13745 9.72209 8.56149C9.92217 9.65045 10.1823 10.7166 10.5891 11.7294C10.6691 11.935 10.6691 12.1102 10.5757 12.3005C10.5357 12.3767 10.5076 12.4596 10.4794 12.5425C10.4653 12.584 10.4512 12.6255 10.4357 12.6661Z" fill="#FFE15A"/>
<path d="M15.6045 15.7655C15.8779 16.8316 16.0513 17.9206 16.098 19.0324C16.1047 19.1618 16.1097 19.2913 16.1147 19.4208C16.1197 19.5502 16.1247 19.6797 16.1314 19.8091C16.138 19.9462 16.0914 19.9843 15.978 19.9843C15.7179 19.9767 15.4578 19.9767 15.1977 19.9843C15.091 19.9843 15.051 19.9386 15.051 19.8167C15.051 19.1847 15.031 18.5526 14.9843 17.9206C14.9109 16.9687 14.7909 16.0244 14.6041 15.0877C14.4041 14.0749 14.144 13.0849 13.7638 12.133C13.72 12.0219 13.7473 11.931 13.7756 11.8366C13.7861 11.8018 13.7967 11.7664 13.8039 11.7294C13.8505 11.5695 13.9106 11.4172 13.9706 11.2725C14.064 11.0288 14.144 10.7775 14.204 10.5186C14.2707 10.2216 14.3441 9.92465 14.4374 9.63527C14.4708 9.49059 14.5024 9.34401 14.5341 9.19743C14.5658 9.0509 14.5975 8.90415 14.6308 8.75953C14.6812 8.63921 14.697 8.5117 14.7127 8.38441C14.7199 8.32641 14.7271 8.26845 14.7375 8.21124C14.7909 7.91424 14.8442 7.60964 14.8576 7.30503C14.9043 6.74151 14.9509 6.1856 15.0043 5.62208C15.0393 5.21553 15.0386 4.80315 15.0378 4.39515L15.0376 4.22089C15.0376 4.05336 15.0843 4.00005 15.231 4.00766C15.4778 4.01528 15.7179 4.01528 15.9646 4.00766C16.0847 4.00005 16.1314 4.05336 16.1247 4.19804C16.1114 4.76918 16.0713 5.3327 16.0247 5.90384C16.003 6.27421 15.942 6.63458 15.8806 6.99711C15.8662 7.08181 15.8518 7.16664 15.8379 7.25173L15.8369 7.25858C15.8306 7.30269 15.8233 7.35299 15.7979 7.39641C15.7857 7.43832 15.7819 7.48184 15.7781 7.52475C15.7737 7.5754 15.7693 7.62521 15.7512 7.67056C15.7112 7.76956 15.6912 7.86855 15.6712 7.96755C15.3444 9.33828 14.8509 10.6329 14.1773 11.8284C14.104 11.9655 14.104 12.0493 14.1773 12.1864C14.4574 12.6585 14.6975 13.1611 14.9043 13.6789C15.0977 14.1663 15.2777 14.6613 15.4311 15.1715C15.455 15.2472 15.4757 15.3266 15.4966 15.4067C15.5283 15.5279 15.5603 15.6508 15.6045 15.7655Z" fill="#FFE15A"/>
<path d="M10.092 11.4494C10.0735 11.3927 10.055 11.336 10.035 11.2801C10.0092 11.1958 9.98345 11.111 9.95759 11.0259C9.88298 10.7802 9.80742 10.5314 9.72818 10.2826C9.58813 9.83326 9.49477 9.37635 9.4014 8.91183C9.22133 8.00562 9.10129 7.08419 9.02793 6.15514C8.97458 5.50023 8.95457 4.84533 8.95457 4.18281C8.95457 4.06097 8.92789 4.00766 8.81452 4.00766C8.54776 4.01528 8.28099 4.01528 8.01423 4.00766C7.90752 4.00766 7.87418 4.06097 7.87418 4.18281C7.89418 5.00525 7.94754 5.82768 8.06758 6.63489C8.17429 7.32026 8.32101 7.98278 8.50107 8.64529C8.54775 8.82806 8.59444 9.00321 8.6678 9.17836C8.98125 10.1226 9.36805 11.0288 9.8549 11.8741C9.90825 11.9731 9.90158 12.0417 9.84823 12.133C9.09462 13.4657 8.56109 14.905 8.24765 16.4356C8.09426 17.1438 7.98755 17.852 7.94087 18.5755C7.91419 18.9943 7.90085 19.4131 7.90752 19.8396C7.90752 19.9462 7.95421 19.969 8.03423 19.969C8.29433 19.9614 8.55442 19.9614 8.81452 19.969C8.91456 19.9767 8.94123 19.9234 8.94123 19.8244C8.92593 19.2944 8.96133 18.7645 8.99673 18.2346C9.00762 18.0715 9.01851 17.9085 9.02793 17.7454C9.04794 17.418 9.08128 17.0829 9.1413 16.7554C9.16798 16.5422 9.19466 16.329 9.228 16.1158C9.37472 15.1563 9.57479 14.212 9.84156 13.2905C9.89491 13.0392 9.98161 12.8032 10.075 12.5671C10.0886 12.5315 10.1017 12.4958 10.1147 12.4604C10.1462 12.3746 10.1773 12.29 10.215 12.2092C10.2884 12.0645 10.2817 11.9274 10.215 11.7827C10.1661 11.6761 10.1291 11.5627 10.092 11.4494Z" fill="#FFE15A"/>
</svg>
