<svg width="24" height="24" viewBox="0 0 24 24" fill="none" xmlns="http://www.w3.org/2000/svg">
<path d="M11.7188 2H3.28125C1.46906 2 0 3.46906 0 5.28125V13.7188C0 15.5309 1.46906 17 3.28125 17H11.7188C13.5309 17 15 15.5309 15 13.7188V5.28125C15 3.46906 13.5309 2 11.7188 2Z" fill="#0A48B6"/>
<path fill-rule="evenodd" clip-rule="evenodd" d="M7.73954 5.30144L7.61444 4.92632C7.59824 4.87775 7.52954 4.87775 7.5134 4.92632L7.3883 5.30144L6.9929 5.30452C6.94172 5.30493 6.92048 5.37026 6.96167 5.40067L7.27975 5.63557L7.16048 6.01256C7.14504 6.06137 7.20059 6.10174 7.24225 6.07198L7.56393 5.84205L7.88561 6.07198C7.92725 6.10174 7.98282 6.06137 7.96738 6.01256L7.84811 5.63557L8.16619 5.40067C8.20738 5.37023 8.18614 5.3049 8.13496 5.30452L7.73954 5.30144ZM7.73954 13.3551L7.61444 12.98C7.59824 12.9315 7.52954 12.9315 7.5134 12.98L7.3883 13.3551L6.9929 13.3582C6.94172 13.3586 6.92048 13.4239 6.96167 13.4543L7.27975 13.6892L7.16048 14.0662C7.14504 14.115 7.20059 14.1554 7.24225 14.1256L7.56393 13.8957L7.88561 14.1256C7.92725 14.1554 7.98282 14.115 7.96738 14.0662L7.84811 13.6892L8.16619 13.4543C8.20738 13.4239 8.18614 13.3586 8.13496 13.3582L7.73954 13.3551ZM11.6409 8.95318L11.766 9.3283L12.1614 9.33137C12.2125 9.33178 12.2338 9.39709 12.1926 9.42753L11.8745 9.66243L11.9938 10.0394C12.0092 10.0882 11.9536 10.1286 11.912 10.0988L11.5903 9.86892L11.2686 10.0988C11.227 10.1286 11.1714 10.0882 11.1868 10.0394L11.3061 9.66243L10.988 9.42753C10.9468 9.39712 10.9681 9.33178 11.0193 9.33137L11.4147 9.3283L11.5398 8.95318C11.556 8.9046 11.6247 8.9046 11.6409 8.95318ZM3.7132 9.3283L3.5881 8.95318C3.5719 8.9046 3.5032 8.9046 3.48703 8.95318L3.36193 9.3283L2.96654 9.33137C2.91536 9.33178 2.89411 9.39712 2.93531 9.42753L3.25338 9.66243L3.13412 10.0394C3.11868 10.0882 3.17422 10.1286 3.21588 10.0988L3.53756 9.86892L3.85924 10.0988C3.90087 10.1286 3.95645 10.0882 3.94101 10.0394L3.82174 9.66243L4.13982 9.42753C4.18101 9.39709 4.15977 9.33178 4.10859 9.33137L3.7132 9.3283ZM4.19354 6.85013L4.31863 7.22522L4.71405 7.2283C4.76524 7.22871 4.78648 7.29401 4.74528 7.32442L4.42721 7.55932L4.54648 7.93631C4.56192 7.98512 4.50634 8.02549 4.46471 7.99573L4.14303 7.76581L3.82135 7.99573C3.77969 8.02549 3.72411 7.98512 3.73958 7.93631L3.85885 7.55932L3.54078 7.32442C3.49958 7.29401 3.52082 7.22868 3.57201 7.22827L3.9674 7.22519L4.09249 6.8501C4.10864 6.80159 4.17734 6.80159 4.19354 6.85013ZM11.2923 11.2521L11.1672 10.877C11.151 10.8284 11.0823 10.8284 11.0661 10.877L10.941 11.2521L10.5456 11.2552C10.4945 11.2556 10.4732 11.3209 10.5144 11.3513L10.8325 11.5862L10.7132 11.9632C10.6977 12.012 10.7533 12.0524 10.795 12.0226L11.1167 11.7927L11.4383 12.0226C11.48 12.0524 11.5355 12.012 11.5201 11.9632L11.4008 11.5862L11.7189 11.3513C11.7601 11.3209 11.7389 11.2556 11.6877 11.2552L11.2923 11.2521ZM9.69262 5.37625L9.81772 5.75137L10.2131 5.75445C10.2643 5.75486 10.2855 5.82016 10.2443 5.8506L9.92626 6.0855L10.0455 6.46249C10.061 6.5113 10.0054 6.55167 9.96376 6.52191L9.64208 6.29199L9.3204 6.52191C9.27874 6.55167 9.22317 6.5113 9.23861 6.46249L9.35788 6.0855L9.0398 5.8506C8.99861 5.82019 9.01985 5.75486 9.07103 5.75445L9.46642 5.75137L9.59152 5.37625C9.60775 5.32771 9.67645 5.32771 9.69262 5.37625ZM5.79132 12.726L5.66622 12.3509C5.65002 12.3023 5.58132 12.3023 5.56515 12.3509L5.44005 12.726L5.04466 12.7291C4.99348 12.7295 4.97224 12.7948 5.01343 12.8252L5.33151 13.0601L5.21224 13.4371C5.1968 13.4859 5.25235 13.5263 5.29401 13.4965L5.61569 13.2666L5.93737 13.4965C5.97903 13.5263 6.0346 13.4859 6.01916 13.4371L5.8999 13.0601L6.21797 12.8252C6.25916 12.7948 6.23792 12.7295 6.18674 12.7291L5.79132 12.726ZM11.0661 6.85013L10.941 7.22522L10.5456 7.2283C10.4945 7.22871 10.4732 7.29401 10.5144 7.32442L10.8325 7.55932L10.7132 7.93631C10.6978 7.98512 10.7534 8.02549 10.795 7.99573L11.1167 7.76581L11.4383 7.99573C11.48 8.02549 11.5356 7.98512 11.5201 7.93631L11.4008 7.55932L11.7189 7.32442C11.7601 7.29401 11.7389 7.22868 11.6877 7.22827L11.2923 7.22519L11.1672 6.8501C11.151 6.80159 11.0823 6.80159 11.0661 6.85013ZM3.9674 11.2521L4.09249 10.877C4.10869 10.8284 4.17739 10.8284 4.19357 10.877L4.31866 11.2521L4.71408 11.2552C4.76527 11.2556 4.78651 11.3209 4.74531 11.3513L4.42724 11.5862L4.54651 11.9632C4.56192 12.012 4.50637 12.0524 4.46471 12.0226L4.14303 11.7927L3.82135 12.0226C3.77972 12.0524 3.72414 12.012 3.73958 11.9632L3.85885 11.5862L3.54078 11.3513C3.49958 11.3209 3.52082 11.2556 3.57201 11.2552L3.9674 11.2521ZM5.56515 5.37625L5.44005 5.75137L5.04466 5.75445C4.99348 5.75486 4.97224 5.82016 5.01343 5.8506L5.33151 6.0855L5.21224 6.46249C5.1968 6.5113 5.25238 6.55167 5.29401 6.52191L5.61569 6.29199L5.93737 6.52191C5.97903 6.55167 6.03457 6.5113 6.01913 6.46249L5.89987 6.0855L6.21794 5.8506C6.25913 5.82019 6.23789 5.75486 6.18671 5.75445L5.79129 5.75137L5.66619 5.37625C5.65005 5.32771 5.58135 5.32771 5.56515 5.37625ZM9.46642 12.726L9.59152 12.3509C9.60772 12.3023 9.67642 12.3023 9.69259 12.3509L9.81769 12.726L10.2131 12.7291C10.2643 12.7295 10.2855 12.7948 10.2443 12.8252L9.92623 13.0601L10.0455 13.4371C10.061 13.4859 10.0054 13.5263 9.96373 13.4965L9.64205 13.2666L9.32037 13.4965C9.27874 13.5263 9.22317 13.4859 9.23861 13.4371L9.35787 13.0601L9.0398 12.8252C8.99861 12.7948 9.01985 12.7295 9.07103 12.7291L9.46642 12.726Z" fill="#FFE15A"/>
<path fill-rule="evenodd" clip-rule="evenodd" d="M9.78388 8.15421H23.2173C23.5018 8.48785 23.7206 8.87905 23.8538 9.30807H9.14746C9.28059 8.87905 9.49946 8.48785 9.78388 8.15421ZM9 10.4618H24V11.6155H9V10.4618ZM24 12.7697H9V13.9234H24V12.7697ZM9 15.0771H24V16.2308H9V15.0771ZM24 17.3852H9V18.5389H24V17.3852ZM9.14746 19.6928H23.8538C23.7206 20.1218 23.5018 20.513 23.2173 20.8466H9.78388C9.49946 20.513 9.28056 20.1218 9.14746 19.6928Z" fill="#F5F5F5"/>
<path fill-rule="evenodd" clip-rule="evenodd" d="M20.7187 7H12.2812C11.2807 7 10.3851 7.44786 9.7832 8.15386H23.2166C22.6148 7.44786 21.7191 7 20.7187 7ZM24 11.6152H9V12.7689H24V11.6152ZM23.8532 9.30811C23.9486 9.61569 24 9.94265 24 10.2816V10.4619H9V10.2816C9 9.94265 9.05142 9.61569 9.14687 9.30811H23.8532ZM24 13.9231H9V15.0768H24V13.9231ZM24 18.5388V18.7191C24 19.0581 23.9486 19.3851 23.8532 19.6927H9.14687C9.05142 19.3851 9 19.0581 9 18.7191V18.5388H24ZM23.2167 20.8462H9.7832C10.3851 21.5522 11.2807 22.0001 12.2812 22.0001H20.7187C21.7191 22.0001 22.6148 21.5522 23.2167 20.8462ZM9 16.231H24V17.3847H9V16.231Z" fill="#FA4051"/>
<path d="M17.0002 7H12.2502C10.4553 7 9.00024 8.46906 9.00024 10.2813V15.0769H17.0002V7Z" fill="#1939C9"/>
<path fill-rule="evenodd" clip-rule="evenodd" d="M11.6128 7.72147L11.675 7.9081L11.8717 7.90962C11.8971 7.90982 11.9077 7.94231 11.8872 7.95743L11.729 8.0743L11.7883 8.26186C11.796 8.28614 11.7683 8.30621 11.7476 8.29142L11.5876 8.17701L11.4275 8.29142C11.4068 8.30624 11.3791 8.28614 11.3868 8.26186L11.4461 8.0743L11.2879 7.95743C11.2674 7.94231 11.278 7.9098 11.3034 7.90962L11.5001 7.9081L11.5624 7.72147C11.5705 7.69733 11.6047 7.69733 11.6128 7.72147ZM9.87021 8.26207C9.86253 8.28636 9.89016 8.30645 9.9109 8.29163L10.071 8.17726L10.231 8.29163C10.2517 8.30645 10.2794 8.28636 10.2717 8.26207L10.2124 8.07451L10.3706 7.95765C10.3911 7.9425 10.3806 7.91001 10.3551 7.9098L10.1584 7.90828L10.1248 7.80762C10.0405 7.88112 9.96006 7.95894 9.88369 8.04059L9.92959 8.07451L9.87021 8.26207ZM10.0962 9.27789L10.1584 9.46451L10.3551 9.46604C10.3806 9.46624 10.3911 9.49873 10.3707 9.51388L10.2124 9.63075L10.2717 9.81831C10.2794 9.84259 10.2518 9.86266 10.231 9.84787L10.071 9.73346L9.91094 9.84787C9.89022 9.86269 9.86257 9.84259 9.87024 9.81831L9.92957 9.63075L9.77131 9.51388C9.75083 9.49876 9.76137 9.46624 9.78683 9.46604L9.98353 9.46451L10.0458 9.27789C10.0539 9.25372 10.0881 9.25372 10.0962 9.27789ZM10.1584 11.1913L10.0962 11.0047C10.0881 10.9805 10.0539 10.9805 10.0458 11.0047L9.98353 11.1913L9.78683 11.1928C9.76137 11.193 9.75083 11.2256 9.77131 11.2407L9.92957 11.3575L9.87024 11.5451C9.86257 11.5694 9.89022 11.5895 9.91094 11.5747L10.071 11.4603L10.231 11.5747C10.2518 11.5895 10.2794 11.5694 10.2717 11.5451L10.2124 11.3575L10.3707 11.2407C10.3911 11.2255 10.3806 11.193 10.3551 11.1928L10.1584 11.1913ZM10.0962 12.5914L10.1584 12.778L10.3551 12.7795C10.3806 12.7797 10.3911 12.8122 10.3707 12.8274L10.2124 12.9442L10.2717 13.1318C10.2794 13.1561 10.2518 13.1761 10.231 13.1613L10.071 13.0469L9.91094 13.1613C9.89022 13.1761 9.86257 13.1561 9.87024 13.1318L9.92957 12.9442L9.77131 12.8274C9.75083 12.8122 9.76137 12.7797 9.78683 12.7795L9.98353 12.778L10.0458 12.5914C10.0539 12.5672 10.0881 12.5672 10.0962 12.5914ZM10.1584 14.2211L10.0962 14.0345C10.0881 14.0103 10.0539 14.0103 10.0458 14.0345L9.98353 14.2211L9.78683 14.2226C9.76137 14.2228 9.75083 14.2554 9.77131 14.2705L9.92957 14.3873L9.87024 14.5749C9.86257 14.5992 9.89022 14.6192 9.91094 14.6045L10.071 14.4901L10.231 14.6045C10.2518 14.6192 10.2794 14.5992 10.2717 14.5749L10.2124 14.3873L10.3707 14.2705C10.3911 14.2553 10.3806 14.2228 10.3551 14.2226L10.1584 14.2211ZM10.8529 8.45856L10.9152 8.64518L11.1119 8.6467C11.1373 8.64691 11.1479 8.6794 11.1274 8.69452L10.9691 8.81138L11.0285 8.99894C11.0361 9.02323 11.0085 9.04332 10.9878 9.0285L10.8278 8.9141L10.6677 9.0285C10.647 9.04332 10.6194 9.02323 10.627 8.99894L10.6864 8.81138L10.5281 8.69452C10.5077 8.6794 10.5182 8.64688 10.5437 8.6467L10.7404 8.64518L10.8026 8.45856C10.8107 8.43439 10.8449 8.43439 10.8529 8.45856ZM10.9152 10.3715L10.853 10.1849C10.8449 10.1607 10.8107 10.1607 10.8026 10.1849L10.7404 10.3715L10.5437 10.373C10.5182 10.3732 10.5077 10.4057 10.5281 10.4209L10.6864 10.5377L10.627 10.7253C10.6194 10.7496 10.647 10.7697 10.6677 10.7548L10.8278 10.6404L10.9878 10.7548C11.0086 10.7697 11.0362 10.7496 11.0285 10.7253L10.9692 10.5377L11.1275 10.4209C11.1479 10.4057 11.1374 10.3732 11.1119 10.373L10.9152 10.3715ZM10.853 11.8252L10.9152 12.0119L11.1119 12.0134C11.1374 12.0136 11.1479 12.0461 11.1275 12.0612L10.9692 12.1781L11.0285 12.3656C11.0362 12.3899 11.0086 12.41 10.9878 12.3952L10.8278 12.2808L10.6677 12.3952C10.647 12.41 10.6194 12.3899 10.627 12.3656L10.6864 12.1781L10.5281 12.0612C10.5077 12.0461 10.5182 12.0136 10.5437 12.0134L10.7404 12.0119L10.8026 11.8252C10.8107 11.8011 10.8449 11.8011 10.853 11.8252ZM10.9152 13.4853L10.853 13.2986C10.8449 13.2745 10.8107 13.2745 10.8026 13.2986L10.7404 13.4853L10.5437 13.4868C10.5182 13.487 10.5077 13.5195 10.5281 13.5346L10.6864 13.6515L10.627 13.8391C10.6194 13.8633 10.647 13.8834 10.6677 13.8686L10.8278 13.7542L10.9878 13.8686C11.0086 13.8834 11.0362 13.8633 11.0285 13.8391L10.9692 13.6515L11.1275 13.5346C11.1479 13.5195 11.1374 13.487 11.1119 13.4868L10.9152 13.4853ZM11.675 9.46451L11.6128 9.27789C11.6047 9.25372 11.5705 9.25372 11.5624 9.27789L11.5001 9.46451L11.3034 9.46604C11.278 9.46624 11.2674 9.49876 11.2879 9.51388L11.4461 9.63075L11.3868 9.81831C11.3791 9.84259 11.4068 9.86269 11.4275 9.84787L11.5876 9.73346L11.7476 9.84787C11.7683 9.86266 11.796 9.84259 11.7883 9.81831L11.729 9.63075L11.8872 9.51388C11.9077 9.49873 11.8971 9.46624 11.8717 9.46604L11.675 9.46451ZM11.6128 11.0047L11.675 11.1913L11.8717 11.1928C11.8971 11.193 11.9077 11.2255 11.8872 11.2407L11.729 11.3575L11.7883 11.5451C11.796 11.5694 11.7683 11.5895 11.7476 11.5747L11.5876 11.4603L11.4275 11.5747C11.4068 11.5895 11.3791 11.5694 11.3868 11.5451L11.4461 11.3575L11.2879 11.2407C11.2674 11.2256 11.278 11.193 11.3034 11.1928L11.5001 11.1913L11.5624 11.0047C11.5705 10.9805 11.6047 10.9805 11.6128 11.0047ZM11.675 12.778L11.6128 12.5914C11.6047 12.5672 11.5705 12.5672 11.5624 12.5914L11.5001 12.778L11.3034 12.7795C11.278 12.7797 11.2674 12.8122 11.2879 12.8274L11.4461 12.9442L11.3868 13.1318C11.3791 13.1561 11.4068 13.1761 11.4275 13.1613L11.5876 13.0469L11.7476 13.1613C11.7683 13.1761 11.796 13.1561 11.7883 13.1318L11.729 12.9442L11.8872 12.8274C11.9077 12.8122 11.8971 12.7797 11.8717 12.7795L11.675 12.778ZM11.6128 14.0345L11.675 14.2211L11.8717 14.2226C11.8971 14.2228 11.9077 14.2553 11.8872 14.2705L11.729 14.3873L11.7883 14.5749C11.796 14.5992 11.7683 14.6192 11.7476 14.6045L11.5876 14.4901L11.4275 14.6045C11.4068 14.6192 11.3791 14.5992 11.3868 14.5749L11.4461 14.3873L11.2879 14.2705C11.2674 14.2554 11.278 14.2228 11.3034 14.2226L11.5001 14.2211L11.5624 14.0345C11.5705 14.0103 11.6047 14.0103 11.6128 14.0345ZM12.4309 8.64518L12.3686 8.45856C12.3606 8.43439 12.3264 8.43439 12.3182 8.45856L12.256 8.64518L12.0593 8.6467C12.0338 8.64688 12.0233 8.6794 12.0438 8.69452L12.202 8.81138L12.1427 8.99894C12.135 9.02323 12.1627 9.04332 12.1834 9.0285L12.3434 8.9141L12.5035 9.0285C12.5242 9.04332 12.5519 9.02323 12.5442 8.99894L12.4849 8.81138L12.6431 8.69452C12.6636 8.6794 12.653 8.64691 12.6276 8.6467L12.4309 8.64518ZM12.3686 10.1849L12.4309 10.3715L12.6276 10.373C12.653 10.3732 12.6636 10.4057 12.6431 10.4209L12.4849 10.5377L12.5442 10.7253C12.5519 10.7496 12.5242 10.7697 12.5035 10.7548L12.3434 10.6404L12.1834 10.7548C12.1627 10.7697 12.135 10.7496 12.1427 10.7253L12.202 10.5377L12.0438 10.4209C12.0233 10.4057 12.0338 10.3732 12.0593 10.373L12.256 10.3715L12.3182 10.1849C12.3264 10.1607 12.3606 10.1607 12.3686 10.1849ZM12.4309 12.0119L12.3686 11.8252C12.3606 11.8011 12.3264 11.8011 12.3182 11.8252L12.256 12.0119L12.0593 12.0134C12.0338 12.0136 12.0233 12.0461 12.0438 12.0612L12.202 12.1781L12.1427 12.3656C12.135 12.3899 12.1627 12.41 12.1834 12.3952L12.3434 12.2808L12.5035 12.3952C12.5242 12.41 12.5519 12.3899 12.5442 12.3656L12.4849 12.1781L12.6431 12.0612C12.6636 12.0461 12.653 12.0136 12.6276 12.0134L12.4309 12.0119ZM12.3686 13.2986L12.4309 13.4853L12.6276 13.4868C12.653 13.487 12.6636 13.5195 12.6431 13.5346L12.4849 13.6515L12.5442 13.8391C12.5519 13.8633 12.5242 13.8834 12.5035 13.8686L12.3434 13.7542L12.1834 13.8686C12.1627 13.8834 12.135 13.8633 12.1427 13.8391L12.202 13.6515L12.0438 13.5346C12.0233 13.5195 12.0338 13.487 12.0593 13.4868L12.256 13.4853L12.3182 13.2986C12.3264 13.2745 12.3606 13.2745 12.3686 13.2986ZM13.1906 7.9081L13.1284 7.72147C13.1203 7.69733 13.0862 7.69733 13.078 7.72147L13.0158 7.9081L12.8191 7.90962C12.7936 7.9098 12.7831 7.94231 12.8035 7.95743L12.9618 8.0743L12.9024 8.26186C12.8948 8.28614 12.9224 8.30624 12.9431 8.29142L13.1032 8.17701L13.2632 8.29142C13.284 8.30621 13.3116 8.28614 13.3039 8.26186L13.2446 8.0743L13.4028 7.95743C13.4233 7.94231 13.4128 7.90982 13.3873 7.90962L13.1906 7.9081ZM13.1283 9.2779L13.1906 9.46452L13.3873 9.46604C13.4127 9.46625 13.4233 9.49874 13.4028 9.51388L13.2446 9.63075L13.3039 9.81828C13.3116 9.84257 13.284 9.86264 13.2632 9.84784L13.1032 9.73344L12.9431 9.84784C12.9224 9.86267 12.8948 9.84257 12.9024 9.81828L12.9618 9.63072L12.8035 9.51386C12.7831 9.49874 12.7936 9.46622 12.8191 9.46601L13.0158 9.46449L13.078 9.27787C13.0861 9.25373 13.1203 9.25373 13.1283 9.2779ZM13.1906 11.1913L13.1284 11.0047C13.1203 10.9805 13.0862 10.9805 13.078 11.0047L13.0158 11.1913L12.8191 11.1928C12.7936 11.193 12.7831 11.2256 12.8035 11.2407L12.9618 11.3575L12.9024 11.5451C12.8948 11.5694 12.9224 11.5895 12.9431 11.5747L13.1032 11.4603L13.2632 11.5747C13.284 11.5895 13.3116 11.5694 13.3039 11.5451L13.2446 11.3575L13.4028 11.2407C13.4233 11.2255 13.4128 11.193 13.3873 11.1928L13.1906 11.1913ZM13.1284 12.5914L13.1906 12.778L13.3873 12.7795C13.4128 12.7797 13.4233 12.8122 13.4028 12.8274L13.2446 12.9442L13.3039 13.1318C13.3116 13.1561 13.284 13.1761 13.2632 13.1613L13.1032 13.0469L12.9431 13.1613C12.9224 13.1761 12.8948 13.1561 12.9024 13.1318L12.9618 12.9442L12.8035 12.8274C12.7831 12.8122 12.7936 12.7797 12.8191 12.7795L13.0158 12.778L13.078 12.5914C13.0862 12.5672 13.1203 12.5672 13.1284 12.5914ZM13.1906 14.2211L13.1284 14.0345C13.1203 14.0103 13.0862 14.0103 13.078 14.0345L13.0158 14.2211L12.8191 14.2226C12.7936 14.2228 12.7831 14.2554 12.8035 14.2705L12.9618 14.3873L12.9024 14.5749C12.8948 14.5992 12.9224 14.6192 12.9431 14.6045L13.1032 14.4901L13.2632 14.6045C13.284 14.6192 13.3116 14.5992 13.3039 14.5749L13.2446 14.3873L13.4028 14.2705C13.4233 14.2553 13.4128 14.2228 13.3873 14.2226L13.1906 14.2211ZM13.8852 8.45856L13.9475 8.64518L14.1442 8.6467C14.1696 8.64691 14.1802 8.6794 14.1597 8.69452L14.0014 8.81138L14.0608 8.99894C14.0684 9.02323 14.0408 9.04332 14.0201 9.0285L13.86 8.9141L13.7 9.0285C13.6793 9.04332 13.6516 9.02323 13.6593 8.99894L13.7186 8.81138L13.5604 8.69452C13.5399 8.6794 13.5504 8.64688 13.5759 8.6467L13.7726 8.64518L13.8348 8.45856C13.843 8.43439 13.8772 8.43439 13.8852 8.45856ZM13.9475 10.3715L13.8852 10.1849C13.8772 10.1607 13.843 10.1607 13.8348 10.1849L13.7726 10.3715L13.5759 10.373C13.5504 10.3732 13.5399 10.4057 13.5604 10.4209L13.7186 10.5377L13.6593 10.7253C13.6516 10.7496 13.6793 10.7697 13.7 10.7548L13.86 10.6404L14.0201 10.7548C14.0408 10.7697 14.0684 10.7496 14.0608 10.7253L14.0014 10.5377L14.1597 10.4209C14.1802 10.4057 14.1696 10.3732 14.1442 10.373L13.9475 10.3715ZM13.8852 11.8252L13.9475 12.0119L14.1442 12.0134C14.1696 12.0136 14.1802 12.0461 14.1597 12.0612L14.0014 12.1781L14.0608 12.3656C14.0684 12.3899 14.0408 12.41 14.0201 12.3952L13.86 12.2808L13.7 12.3952C13.6793 12.41 13.6516 12.3899 13.6593 12.3656L13.7186 12.1781L13.5604 12.0612C13.5399 12.0461 13.5504 12.0136 13.5759 12.0134L13.7726 12.0119L13.8348 11.8252C13.843 11.8011 13.8772 11.8011 13.8852 11.8252ZM13.9475 13.4853L13.8852 13.2986C13.8772 13.2745 13.843 13.2745 13.8348 13.2986L13.7726 13.4853L13.5759 13.4868C13.5504 13.487 13.5399 13.5195 13.5604 13.5346L13.7186 13.6515L13.6593 13.8391C13.6516 13.8633 13.6793 13.8834 13.7 13.8686L13.86 13.7542L14.0201 13.8686C14.0408 13.8834 14.0684 13.8633 14.0608 13.8391L14.0014 13.6515L14.1597 13.5346C14.1802 13.5195 14.1696 13.487 14.1442 13.4868L13.9475 13.4853ZM14.6431 7.72147L14.7053 7.9081L14.902 7.90962C14.9275 7.90982 14.938 7.94231 14.9175 7.95743L14.7593 8.0743L14.8186 8.26186C14.8263 8.28614 14.7986 8.30621 14.7779 8.29142L14.6179 8.17701L14.4578 8.29142C14.4371 8.30624 14.4094 8.28614 14.4171 8.26186L14.4764 8.0743L14.3182 7.95743C14.2977 7.94231 14.3082 7.9098 14.3337 7.90962L14.5304 7.9081L14.5927 7.72147C14.6009 7.69733 14.635 7.69733 14.6431 7.72147ZM14.7053 9.46451L14.6431 9.27789C14.635 9.25372 14.6009 9.25372 14.5927 9.27789L14.5304 9.46451L14.3337 9.46604C14.3082 9.46624 14.2977 9.49876 14.3182 9.51388L14.4764 9.63075L14.4171 9.81831C14.4094 9.84259 14.4371 9.86269 14.4578 9.84787L14.6179 9.73346L14.7779 9.84787C14.7986 9.86266 14.8263 9.84259 14.8186 9.81831L14.7593 9.63075L14.9175 9.51388C14.938 9.49873 14.9275 9.46624 14.902 9.46604L14.7053 9.46451ZM14.6431 11.0047L14.7053 11.1913L14.902 11.1928C14.9275 11.193 14.938 11.2255 14.9175 11.2407L14.7593 11.3575L14.8186 11.5451C14.8263 11.5694 14.7986 11.5895 14.7779 11.5747L14.6179 11.4603L14.4578 11.5747C14.4371 11.5895 14.4094 11.5694 14.4171 11.5451L14.4764 11.3575L14.3182 11.2407C14.2977 11.2256 14.3082 11.193 14.3337 11.1928L14.5304 11.1913L14.5927 11.0047C14.6009 10.9805 14.635 10.9805 14.6431 11.0047ZM14.7053 12.778L14.6431 12.5914C14.635 12.5672 14.6009 12.5672 14.5927 12.5914L14.5304 12.778L14.3337 12.7795C14.3082 12.7797 14.2977 12.8122 14.3182 12.8274L14.4764 12.9442L14.4171 13.1318C14.4094 13.1561 14.4371 13.1761 14.4578 13.1613L14.6179 13.0469L14.7779 13.1613C14.7986 13.1761 14.8263 13.1561 14.8186 13.1318L14.7593 12.9442L14.9175 12.8274C14.938 12.8122 14.9275 12.7797 14.902 12.7795L14.7053 12.778ZM14.6431 14.0345L14.7053 14.2211L14.902 14.2226C14.9275 14.2228 14.938 14.2553 14.9175 14.2705L14.7593 14.3873L14.8186 14.5749C14.8263 14.5992 14.7986 14.6192 14.7779 14.6045L14.6179 14.4901L14.4578 14.6045C14.4371 14.6192 14.4094 14.5992 14.4171 14.5749L14.4764 14.3873L14.3182 14.2705C14.2977 14.2554 14.3082 14.2228 14.3337 14.2226L14.5304 14.2211L14.5927 14.0345C14.6009 14.0103 14.635 14.0103 14.6431 14.0345ZM15.4611 8.64518L15.3989 8.45856C15.3909 8.43439 15.3567 8.43439 15.3485 8.45856L15.2863 8.64518L15.0896 8.6467C15.0641 8.64688 15.0536 8.6794 15.074 8.69452L15.2323 8.81138L15.173 8.99894C15.1653 9.02323 15.193 9.04332 15.2137 9.0285L15.3737 8.9141L15.5338 9.0285C15.5545 9.04332 15.5821 9.02323 15.5745 8.99894L15.5151 8.81138L15.6734 8.69452C15.6939 8.6794 15.6833 8.64691 15.6579 8.6467L15.4611 8.64518ZM15.3989 10.1849L15.4611 10.3715L15.6579 10.373C15.6833 10.3732 15.6939 10.4057 15.6734 10.4209L15.5151 10.5377L15.5745 10.7253C15.5821 10.7496 15.5545 10.7697 15.5338 10.7548L15.3737 10.6404L15.2137 10.7548C15.193 10.7697 15.1653 10.7496 15.173 10.7253L15.2323 10.5377L15.074 10.4209C15.0536 10.4057 15.0641 10.3732 15.0896 10.373L15.2863 10.3715L15.3485 10.1849C15.3567 10.1607 15.3909 10.1607 15.3989 10.1849ZM15.4611 12.0119L15.3989 11.8252C15.3909 11.8011 15.3567 11.8011 15.3485 11.8252L15.2863 12.0119L15.0896 12.0134C15.0641 12.0136 15.0536 12.0461 15.074 12.0612L15.2323 12.1781L15.173 12.3656C15.1653 12.3899 15.193 12.41 15.2137 12.3952L15.3737 12.2808L15.5338 12.3952C15.5545 12.41 15.5821 12.3899 15.5745 12.3656L15.5151 12.1781L15.6734 12.0612C15.6939 12.0461 15.6833 12.0136 15.6579 12.0134L15.4611 12.0119ZM15.3989 13.2986L15.4611 13.4853L15.6579 13.4868C15.6833 13.487 15.6939 13.5195 15.6734 13.5346L15.5151 13.6515L15.5745 13.8391C15.5821 13.8633 15.5545 13.8834 15.5338 13.8686L15.3737 13.7542L15.2137 13.8686C15.193 13.8834 15.1653 13.8633 15.173 13.8391L15.2323 13.6515L15.074 13.5346C15.0536 13.5195 15.0641 13.487 15.0896 13.4868L15.2863 13.4853L15.3485 13.2986C15.3567 13.2745 15.3909 13.2745 15.3989 13.2986ZM16.2199 7.9081L16.1577 7.72147C16.1496 7.69733 16.1155 7.69733 16.1073 7.72147L16.0451 7.9081L15.8484 7.90962C15.8229 7.9098 15.8124 7.94231 15.8328 7.95743L15.9911 8.0743L15.9318 8.26186C15.9241 8.28614 15.9517 8.30624 15.9725 8.29142L16.1325 8.17701L16.2926 8.29142C16.3133 8.30621 16.3409 8.28614 16.3333 8.26186L16.2739 8.0743L16.4322 7.95743C16.4527 7.94231 16.4421 7.90982 16.4166 7.90962L16.2199 7.9081ZM16.1577 9.27789L16.2199 9.46451L16.4166 9.46604C16.4421 9.46624 16.4527 9.49873 16.4322 9.51388L16.2739 9.63075L16.3333 9.81831C16.3409 9.84259 16.3133 9.86266 16.2926 9.84787L16.1325 9.73346L15.9725 9.84787C15.9517 9.86269 15.9241 9.84259 15.9318 9.81831L15.9911 9.63075L15.8328 9.51388C15.8124 9.49876 15.8229 9.46624 15.8484 9.46604L16.0451 9.46451L16.1073 9.27789C16.1155 9.25372 16.1496 9.25372 16.1577 9.27789ZM16.2199 11.1913L16.1577 11.0047C16.1496 10.9805 16.1155 10.9805 16.1073 11.0047L16.0451 11.1913L15.8484 11.1928C15.8229 11.193 15.8124 11.2256 15.8328 11.2407L15.9911 11.3575L15.9318 11.5451C15.9241 11.5694 15.9517 11.5895 15.9725 11.5747L16.1325 11.4603L16.2926 11.5747C16.3133 11.5895 16.3409 11.5694 16.3333 11.5451L16.2739 11.3575L16.4322 11.2407C16.4527 11.2255 16.4421 11.193 16.4166 11.1928L16.2199 11.1913ZM16.1577 12.5914L16.2199 12.778L16.4166 12.7795C16.4421 12.7797 16.4527 12.8122 16.4322 12.8274L16.2739 12.9442L16.3333 13.1318C16.3409 13.1561 16.3133 13.1761 16.2926 13.1613L16.1325 13.0469L15.9725 13.1613C15.9517 13.1761 15.9241 13.1561 15.9318 13.1318L15.9911 12.9442L15.8328 12.8274C15.8124 12.8122 15.8229 12.7797 15.8484 12.7795L16.0451 12.778L16.1073 12.5914C16.1155 12.5672 16.1496 12.5672 16.1577 12.5914ZM16.2199 14.2211L16.1577 14.0345C16.1496 14.0103 16.1155 14.0103 16.1073 14.0345L16.0451 14.2211L15.8484 14.2226C15.8229 14.2228 15.8124 14.2554 15.8328 14.2705L15.9911 14.3873L15.9318 14.5749C15.9241 14.5992 15.9517 14.6192 15.9725 14.6045L16.1325 14.4901L16.2926 14.6045C16.3133 14.6192 16.3409 14.5992 16.3333 14.5749L16.2739 14.3873L16.4322 14.2705C16.4527 14.2553 16.4421 14.2228 16.4166 14.2226L16.2199 14.2211Z" fill="#F5F5F5"/>
</svg>
